<svg xmlns="http://www.w3.org/2000/svg" viewBox="0 0 120 120">
  <defs>
    <linearGradient id="bg" x1="0%" y1="0%" x2="100%" y2="100%">
      <stop offset="0%" stop-color="#38bdf8"/>
      <stop offset="100%" stop-color="#0ea5e9"/>
    </linearGradient>
  </defs>
  <rect x="4" y="4" width="112" height="112" rx="24" fill="url(#bg)"/>
  <g transform="translate(10, 8)" fill="white">
    <ellipse cx="50" cy="65" rx="30" ry="22"/>
    <circle cx="42" cy="38" r="18"/>
    <rect x="32" y="48" width="20" height="15" rx="2"/>
    <path d="M76 55 L92 50 L88 62 Z"/>
    <path d="M56 36 L72 38 L56 42 Z" fill="#facc15"/>
    <circle cx="46" cy="34" r="5" fill="#0c4a6e"/>
    <circle cx="47" cy="32.5" r="2" fill="white"/>
    <path d="M38 32 Q46 29 56 32" fill="none" stroke="#1e293b" stroke-width="2.5"/>
    <rect x="40" y="30" width="14" height="6" rx="2" fill="#1e293b" opacity="0.85"/>
    <path d="M30 60 Q38 56 46 60 Q38 64 30 60Z" fill="rgba(255,255,255,0.5)"/>
  </g>
</svg>
